<svg width="312" height="248" viewBox="0 0 312 248" fill="none" xmlns="http://www.w3.org/2000/svg">
<path fill-rule="evenodd" clip-rule="evenodd" d="M312 124C312 138 242.156 197 156 197C69.8436 197 0 137 0 124C0 111 69.8436 51 156 51C242.156 51 312 110 312 124ZM156 191C193.003 191 223 161.003 223 124C223 86.9969 193.003 57 156 57C118.997 57 89 86.9969 89 124C89 161.003 118.997 191 156 191ZM156 173C183.062 173 205 151.062 205 124C205 96.938 183.062 75 156 75C128.938 75 107 96.938 107 124C107 151.062 128.938 173 156 173ZM143 132C156.807 132 168 120.807 168 107C168 93.1929 156.807 82 143 82C129.193 82 118 93.1929 118 107C118 120.807 129.193 132 143 132Z" fill="#02366E"/>
<rect x="258.973" y="0.415894" width="29.9734" height="307.339" rx="14.9867" transform="rotate(42.4886 258.973 0.415894)" fill="#02366E"/>
</svg>
