<svg width="312" height="146" viewBox="0 0 312 146" fill="none" xmlns="http://www.w3.org/2000/svg">
<path fill-rule="evenodd" clip-rule="evenodd" d="M312 73C312 87 242.156 146 156 146C69.8436 146 0 86 0 73C0 60 69.8436 0 156 0C242.156 0 312 59 312 73ZM156 140C193.003 140 223 110.003 223 73C223 35.9969 193.003 6 156 6C118.997 6 89 35.9969 89 73C89 110.003 118.997 140 156 140ZM156 122C183.062 122 205 100.062 205 73C205 45.938 183.062 24 156 24C128.938 24 107 45.938 107 73C107 100.062 128.938 122 156 122ZM143 81C156.807 81 168 69.8071 168 56C168 42.1929 156.807 31 143 31C129.193 31 118 42.1929 118 56C118 69.8071 129.193 81 143 81Z" fill="#02366E"/>
</svg>
