<svg width="70" height="73" viewBox="0 0 70 73" fill="none" xmlns="http://www.w3.org/2000/svg">
<path fill-rule="evenodd" clip-rule="evenodd" d="M35 72.1807C54.33 72.1807 70.0001 56.0225 70.0001 36.0903C70.0001 16.1582 54.33 0 35 0C15.67 0 0 16.1582 0 36.0903C0 56.0225 15.67 72.1807 35 72.1807ZM19.04 14.1473H50.96C53.894 14.1473 56.28 16.6077 56.28 19.6331V52.5475C56.28 55.5729 53.894 58.0333 50.96 58.0333H42.98V42.9475H46.97L49.63 36.0903H42.98V30.6046C42.98 29.2129 43.9869 29.2209 45.2899 29.2313C45.4045 29.2322 45.5214 29.2331 45.64 29.2331H48.3V22.3759H42.98C38.5724 22.3759 35 26.0596 35 30.6046V36.0903H29.68V42.9475H35V58.0333H19.04C16.106 58.0333 13.72 55.5729 13.72 52.5475V19.6331C13.72 16.6077 16.106 14.1473 19.04 14.1473Z" fill="url(#paint0_linear)"/>
<defs>
<linearGradient id="paint0_linear" x1="63.2025" y1="-0.128701" x2="-11.1218" y2="70.0299" gradientUnits="userSpaceOnUse">
<stop stop-color="#02366E"/>
<stop offset="1" stop-color="#25B5DD"/>
</linearGradient>
</defs>
</svg>
