<svg width="70" height="70" viewBox="0 0 70 70" fill="none" xmlns="http://www.w3.org/2000/svg">
<path fill-rule="evenodd" clip-rule="evenodd" d="M35 70C54.33 70 70 54.33 70 35C70 15.67 54.33 0 35 0C15.67 0 0 15.67 0 35C0 54.33 15.67 70 35 70ZM7.15902 35.9068C7.15902 20.469 19.6248 7.95451 34.9964 7.95451C50.3751 7.95451 62.8408 20.469 62.8408 35.9068C62.8408 48.2507 54.8714 58.7224 43.822 62.4252C42.4091 62.7002 41.908 61.8301 41.908 61.0819C41.908 60.7789 41.9118 60.246 41.9169 59.5329C41.9272 58.092 41.9428 55.9156 41.9428 53.4152C41.9428 50.8086 41.0518 49.1034 40.0531 48.2403C46.2546 47.5478 52.7624 45.1848 52.7624 34.4486C52.7624 31.3966 51.6871 28.9013 49.9018 26.9455C50.1871 26.239 51.1407 23.3993 49.6234 19.5502C49.6234 19.5502 47.2882 18.7985 41.9741 22.4144C39.7503 21.7914 37.3664 21.4852 35.0034 21.4713C32.6334 21.4817 30.2531 21.7914 28.0327 22.4109C22.7151 18.7951 20.3765 19.5468 20.3765 19.5468C18.8626 23.3923 19.8162 26.2355 20.105 26.942C18.3232 28.8978 17.2374 31.3931 17.2374 34.4451C17.2374 45.1534 23.7383 47.5512 29.919 48.2577C29.122 48.9572 28.4016 50.1892 28.1511 51.9953C26.5641 52.7122 22.5307 53.9442 20.0459 49.6741C20.0459 49.6741 18.5773 46.9909 15.7827 46.7926C15.7827 46.7926 13.0648 46.7578 15.5948 48.4909C15.5948 48.4909 17.4219 49.3505 18.6852 52.58C18.6852 52.58 20.3208 58.0159 28.0641 56.3281C28.0715 57.5783 28.082 58.6635 28.0901 59.5036C28.0971 60.2303 28.1023 60.7736 28.1023 61.0819C28.1023 61.8232 27.5942 62.6863 26.2022 62.4287C15.1354 58.7294 7.15902 48.2542 7.15902 35.9068Z" fill="url(#paint0_linear)"/>
<defs>
<linearGradient id="paint0_linear" x1="35" y1="7.95455" x2="35" y2="62.4772" gradientUnits="userSpaceOnUse">
<stop stop-color="#02366E"/>
<stop offset="1" stop-color="#25B5DD"/>
</linearGradient>
</defs>
</svg>
